<svg width="1440" height="296" viewBox="0 0 1440 296" fill="none" xmlns="http://www.w3.org/2000/svg">
<path fill-rule="evenodd" clip-rule="evenodd" d="M0 107.095L16.8 89.2462C34.8 71.397 68.4 35.6985 103.2 47.598C136.8 59.4975 171.6 118.995 205.2 154.693C240 190.392 274.8 202.291 308.4 220.141C343.2 237.99 376.8 261.789 411.6 279.638C445.2 297.487 480 309.387 514.8 267.739C548.4 226.09 583.2 130.894 616.8 130.894C651.6 130.894 685.2 226.09 720 267.739C754.8 309.387 788.4 297.487 823.2 279.638C856.8 261.789 891.6 237.99 925.2 190.392C960 142.794 994.8 71.397 1028.4 41.6482C1063.2 11.8995 1096.8 23.799 1131.6 47.598C1165.2 71.397 1200 107.095 1234.8 142.794C1268.4 178.492 1303.2 214.191 1336.8 190.392C1371.6 166.593 1405.2 83.2965 1423.2 41.6482L1440 0V0H1423.2C1405.2 0 1371.6 0 1336.8 0C1303.2 0 1268.4 0 1234.8 0C1200 0 1165.2 0 1131.6 0C1096.8 0 1063.2 0 1028.4 0C994.8 0 960 0 925.2 0C891.6 0 856.8 0 823.2 0C788.4 0 754.8 0 720 0C685.2 0 651.6 0 616.8 0C583.2 0 548.4 0 514.8 0C480 0 445.2 0 411.6 0C376.8 0 343.2 0 308.4 0C274.8 0 240 0 205.2 0C171.6 0 136.8 0 103.2 0C68.4 0 34.8 0 16.8 0H0V107.095Z" fill="black"/>
</svg>
